<?xml version="1.0" standalone="no"?>
<!DOCTYPE svg PUBLIC "-//W3C//DTD SVG 20010904//EN"
 "http://www.w3.org/TR/2001/REC-SVG-20010904/DTD/svg10.dtd">
<svg version="1.0" xmlns="http://www.w3.org/2000/svg"
 width="390.000000pt" height="390.000000pt" viewBox="0 0 390.000000 390.000000"
 preserveAspectRatio="xMidYMid meet">
<metadata>
Created by potrace 1.14, written by Peter Selinger 2001-2017
</metadata>
<g transform="translate(0.000000,390.000000) scale(0.100000,-0.100000)"
fill="#000000" stroke="none">
<path d="M2127 3630 c-195 -24 -403 -87 -533 -161 -103 -58 -208 -161 -267
-263 -29 -49 -62 -129 -87 -210 -151 -479 -171 -530 -278 -688 -147 -218 -293
-360 -507 -492 -338 -209 -455 -366 -455 -610 0 -309 201 -584 530 -727 325
-141 727 -189 1595 -192 393 -2 429 -1 565 21 433 68 734 197 940 403 211 210
266 406 257 914 -9 454 -63 699 -223 1012 -109 212 -236 387 -404 553 -233
232 -497 378 -768 425 -108 19 -279 26 -365 15z"/>
<path d="M931 2884 c-17 -14 -66 -71 -109 -127 -102 -132 -160 -184 -339 -303
-169 -112 -282 -217 -314 -290 -40 -89 -26 -197 30 -248 29 -27 107 -32 167
-12 139 46 428 335 537 536 45 83 116 293 123 369 6 51 4 61 -15 80 -27 27
-43 27 -80 -5z"/>
</g>
</svg>
